<svg id="Layer_1" data-name="Layer 1" xmlns="http://www.w3.org/2000/svg" viewBox="0 0 274.42 65.36"><defs><style>.cls-1{fill:#fff;}.cls-2{fill:#2f3440;}</style></defs><title>DawsonDev_Logo</title><path class="cls-1" d="M57.83,54.75a3.21,3.21,0,0,1-3.13-3.13V14.08a3,3,0,0,1,.94-2.19A3,3,0,0,1,57.83,11H76.6a9,9,0,0,1,6.57,2.82A9,9,0,0,1,86,20.34v25a9.6,9.6,0,0,1-9.38,9.38Zm21.9-9.38v-25a3.21,3.21,0,0,0-3.13-3.13H61V48.5H76.6a3.21,3.21,0,0,0,3.13-3.13Z" transform="translate(-13.09 -10.95)"/><path class="cls-1" d="M98.06,54.75a3.21,3.21,0,0,1-3.13-3.13V20.34a9,9,0,0,1,2.82-6.57A9,9,0,0,1,104.32,11h12.51a9,9,0,0,1,6.58,2.82,9,9,0,0,1,2.81,6.57V51.62a3.21,3.21,0,0,1-3.13,3.13A3.21,3.21,0,0,1,120,51.62V36H101.19V51.62a3.21,3.21,0,0,1-3.13,3.13Zm3.13-25H120V20.34a3.21,3.21,0,0,0-3.13-3.13H104.32a3,3,0,0,0-2.19.94,3,3,0,0,0-.94,2.19Z" transform="translate(-13.09 -10.95)"/><path class="cls-1" d="M157.07,54.75a9,9,0,0,1-6.57-2.81,7.14,7.14,0,0,1-5.94,2.81,9.62,9.62,0,0,1-9.39-9.38V14.08a3.13,3.13,0,0,1,6.26,0V45.37a3.21,3.21,0,0,0,3.13,3.13,3.21,3.21,0,0,0,3.13-3.13V32.85a3.13,3.13,0,0,1,6.25,0V45.37a3.21,3.21,0,0,0,3.13,3.13,3.21,3.21,0,0,0,3.13-3.13V14.08a3.13,3.13,0,0,1,6.26,0V45.37a9.62,9.62,0,0,1-9.39,9.38Z" transform="translate(-13.09 -10.95)"/><path class="cls-1" d="M184.79,36a9.3,9.3,0,0,1-6.88-2.5,9.3,9.3,0,0,1-2.5-6.89V20.34a9.55,9.55,0,0,1,2.5-6.57A8.74,8.74,0,0,1,184.79,11h12.52a9,9,0,0,1,6.57,2.82,9,9,0,0,1,2.82,6.57,3.21,3.21,0,0,1-3.13,3.13,3.21,3.21,0,0,1-3.13-3.13,3.21,3.21,0,0,0-3.13-3.13H184.79a3.21,3.21,0,0,0-3.12,3.13v6.25a3.19,3.19,0,0,0,3.12,3.13h12.52a9.64,9.64,0,0,1,9.39,9.39v6.26a8.73,8.73,0,0,1-2.82,6.88,9.58,9.58,0,0,1-6.57,2.5H184.79a9.6,9.6,0,0,1-9.38-9.38,3.21,3.21,0,0,1,3.13-3.13,3.21,3.21,0,0,1,3.13,3.13,3.21,3.21,0,0,0,3.12,3.13h12.52a3.21,3.21,0,0,0,3.13-3.13V39.11A3.21,3.21,0,0,0,197.31,36Z" transform="translate(-13.09 -10.95)"/><path class="cls-1" d="M225,54.75a9.6,9.6,0,0,1-9.38-9.38v-25a9,9,0,0,1,2.81-6.57A9,9,0,0,1,225,11h12.52a9,9,0,0,1,6.57,2.82,9,9,0,0,1,2.81,6.57v25a9.6,9.6,0,0,1-9.38,9.38Zm15.65-34.41a3.21,3.21,0,0,0-3.13-3.13H225a3.21,3.21,0,0,0-3.13,3.13v25A3.21,3.21,0,0,0,225,48.5h12.52a3.21,3.21,0,0,0,3.13-3.13Z" transform="translate(-13.09 -10.95)"/><path class="cls-1" d="M259,54.75a3.21,3.21,0,0,1-3.13-3.13V14.08a3,3,0,0,1,.94-2.19A3,3,0,0,1,259,11a3,3,0,0,1,2.19.94L280.91,31.6V14.08a3,3,0,0,1,.94-2.19A3,3,0,0,1,284,11a3,3,0,0,1,2.19.94,3,3,0,0,1,.94,2.19V51.62A3.21,3.21,0,0,1,284,54.75a3.21,3.21,0,0,1-3.13-3.13V40.36L262.14,21.59v30A3.21,3.21,0,0,1,259,54.75Z" transform="translate(-13.09 -10.95)"/><path class="cls-2" d="M96.05,76.31a1.86,1.86,0,0,1-1.19-.4,1.18,1.18,0,0,1-.51-.94v-16a1.18,1.18,0,0,1,.51-.94,1.92,1.92,0,0,1,1.19-.4h10.18a5.62,5.62,0,0,1,3.57,1.2,3.54,3.54,0,0,1,1.52,2.81V72.3a3.54,3.54,0,0,1-1.52,2.81,5.62,5.62,0,0,1-3.57,1.2Zm11.88-4V61.6a1.16,1.16,0,0,0-.51-.93,1.84,1.84,0,0,0-1.19-.4H97.75V73.64h8.48a1.85,1.85,0,0,0,1.19-.41A1.15,1.15,0,0,0,107.93,72.3Z" transform="translate(-13.09 -10.95)"/><path class="cls-2" d="M123.85,68.29h-8.48v5.35h11.88a1.83,1.83,0,0,1,1.18.4,1.16,1.16,0,0,1,.51.93,1.18,1.18,0,0,1-.51.94,1.83,1.83,0,0,1-1.18.4H113.67a1.86,1.86,0,0,1-1.19-.4A1.18,1.18,0,0,1,112,75v-16a1.18,1.18,0,0,1,.51-.94,1.92,1.92,0,0,1,1.19-.4h13.58a1.89,1.89,0,0,1,1.18.4,1.18,1.18,0,0,1,.51.94,1.16,1.16,0,0,1-.51.93,1.84,1.84,0,0,1-1.18.41H115.37v5.34h8.48A1.87,1.87,0,0,1,125,66a1.15,1.15,0,0,1,.51.93,1.18,1.18,0,0,1-.51.94A1.92,1.92,0,0,1,123.85,68.29Z" transform="translate(-13.09 -10.95)"/><path class="cls-2" d="M138.08,76.31a1.84,1.84,0,0,1-1.19-.4l-6.79-5.35a1.18,1.18,0,0,1-.51-.94V58.93a1.18,1.18,0,0,1,.51-.94,2,2,0,0,1,2.38,0,1.18,1.18,0,0,1,.51.94v9.41l5.09,4,5.09-4V58.93a1.18,1.18,0,0,1,.51-.94,2,2,0,0,1,2.37,0,1.18,1.18,0,0,1,.51.94V69.62a1.18,1.18,0,0,1-.51.94l-6.79,5.35A1.83,1.83,0,0,1,138.08,76.31Z" transform="translate(-13.09 -10.95)"/><path class="cls-2" d="M159.09,68.29h-8.48v5.35h11.87a1.84,1.84,0,0,1,1.19.4,1.16,1.16,0,0,1,.51.93,1.18,1.18,0,0,1-.51.94,1.84,1.84,0,0,1-1.19.4H148.91a1.86,1.86,0,0,1-1.19-.4,1.18,1.18,0,0,1-.51-.94v-16a1.18,1.18,0,0,1,.51-.94,1.92,1.92,0,0,1,1.19-.4h13.57a1.9,1.9,0,0,1,1.19.4,1.18,1.18,0,0,1,.51.94,1.16,1.16,0,0,1-.51.93,1.85,1.85,0,0,1-1.19.41H150.61v5.34h8.48a1.87,1.87,0,0,1,1.19.41,1.15,1.15,0,0,1,.51.93,1.18,1.18,0,0,1-.51.94A1.92,1.92,0,0,1,159.09,68.29Z" transform="translate(-13.09 -10.95)"/><path class="cls-2" d="M168.22,73.64H180.1a1.86,1.86,0,0,1,1.19.4,1.16,1.16,0,0,1,.51.93,1.18,1.18,0,0,1-.51.94,1.86,1.86,0,0,1-1.19.4H166.53a1.84,1.84,0,0,1-1.19-.4,1.18,1.18,0,0,1-.51-.94v-16a1.18,1.18,0,0,1,.51-.94,1.9,1.9,0,0,1,1.19-.4,1.87,1.87,0,0,1,1.18.4,1.18,1.18,0,0,1,.51.94Z" transform="translate(-13.09 -10.95)"/><path class="cls-2" d="M187.54,76.31a5.57,5.57,0,0,1-3.56-1.2,3.53,3.53,0,0,1-1.53-2.81V61.6A3.53,3.53,0,0,1,184,58.79a5.57,5.57,0,0,1,3.56-1.2h6.79a5.61,5.61,0,0,1,3.56,1.2,3.53,3.53,0,0,1,1.53,2.81V72.3a3.53,3.53,0,0,1-1.53,2.81,5.61,5.61,0,0,1-3.56,1.2ZM196,61.6a1.16,1.16,0,0,0-.51-.93,1.81,1.81,0,0,0-1.18-.4h-6.79a1.86,1.86,0,0,0-1.19.4,1.16,1.16,0,0,0-.51.93V72.3a1.15,1.15,0,0,0,.51.93,1.87,1.87,0,0,0,1.19.41h6.79a1.82,1.82,0,0,0,1.18-.41,1.15,1.15,0,0,0,.51-.93Z" transform="translate(-13.09 -10.95)"/><path class="cls-2" d="M203.46,75a1.18,1.18,0,0,1-.51.94,2,2,0,0,1-2.37,0,1.18,1.18,0,0,1-.51-.94v-16a1.18,1.18,0,0,1,.51-.94,1.89,1.89,0,0,1,1.18-.4H212a5.61,5.61,0,0,1,3.56,1.2A3.53,3.53,0,0,1,217,61.6v2.68a3.49,3.49,0,0,1-1.53,2.8A5.56,5.56,0,0,1,212,68.29h-8.49Zm0-9.36H212a1.83,1.83,0,0,0,1.18-.4,1.17,1.17,0,0,0,.51-.93V61.6a1.16,1.16,0,0,0-.51-.93,1.83,1.83,0,0,0-1.18-.4h-8.49Z" transform="translate(-13.09 -10.95)"/><path class="cls-2" d="M219.38,76.31a1.81,1.81,0,0,1-1.18-.4,1.18,1.18,0,0,1-.51-.94v-16a1.18,1.18,0,0,1,.51-.94,1.87,1.87,0,0,1,1.18-.4,1.92,1.92,0,0,1,1.19.4l5.6,4.41,5.6-4.41a2,2,0,0,1,2.38,0,1.18,1.18,0,0,1,.51.94V75a1.18,1.18,0,0,1-.51.94,2,2,0,0,1-2.38,0,1.18,1.18,0,0,1-.51-.94V62.08l-3.9,3.13a2,2,0,0,1-2.38,0l-3.9-3.07V75a1.18,1.18,0,0,1-.51.94A1.86,1.86,0,0,1,219.38,76.31Z" transform="translate(-13.09 -10.95)"/><path class="cls-2" d="M247.18,68.29H238.7v5.35h11.88a1.86,1.86,0,0,1,1.19.4,1.17,1.17,0,0,1,.5.93,1.19,1.19,0,0,1-.5.94,1.86,1.86,0,0,1-1.19.4H237a1.86,1.86,0,0,1-1.19-.4,1.16,1.16,0,0,1-.5-.94v-16a1.16,1.16,0,0,1,.5-.94,1.92,1.92,0,0,1,1.19-.4h13.58a1.92,1.92,0,0,1,1.19.4,1.19,1.19,0,0,1,.5.94,1.17,1.17,0,0,1-.5.93,1.87,1.87,0,0,1-1.19.41H238.7v5.34h8.48a1.85,1.85,0,0,1,1.19.41,1.15,1.15,0,0,1,.51.93,1.18,1.18,0,0,1-.51.94A1.9,1.9,0,0,1,247.18,68.29Z" transform="translate(-13.09 -10.95)"/><path class="cls-2" d="M254.62,76.31a1.86,1.86,0,0,1-1.19-.4,1.18,1.18,0,0,1-.51-.94v-16a1.18,1.18,0,0,1,.51-.94,2,2,0,0,1,2.38,0l10.69,8.43V58.93A1.18,1.18,0,0,1,267,58a2,2,0,0,1,2.37,0,1.18,1.18,0,0,1,.51.94V75a1.18,1.18,0,0,1-.51.94,2,2,0,0,1-2.37,0,1.18,1.18,0,0,1-.51-.94V70.16l-10.18-8V75a1.18,1.18,0,0,1-.51.94A1.86,1.86,0,0,1,254.62,76.31Z" transform="translate(-13.09 -10.95)"/><path class="cls-2" d="M272.24,60.27a1.87,1.87,0,0,1-1.19-.41,1.16,1.16,0,0,1-.51-.93,1.18,1.18,0,0,1,.51-.94,1.92,1.92,0,0,1,1.19-.4h13.58A1.89,1.89,0,0,1,287,58a1.18,1.18,0,0,1,.51.94,1.16,1.16,0,0,1-.51.93,1.84,1.84,0,0,1-1.18.41h-5.1V75a1.16,1.16,0,0,1-.5.94,2,2,0,0,1-2.38,0,1.18,1.18,0,0,1-.51-.94V60.27Z" transform="translate(-13.09 -10.95)"/><path class="cls-1" d="M37.7,38.18,14.4,18.91a3.26,3.26,0,0,1-1.31-2.55,3.23,3.23,0,0,1,1.31-2.54,4.79,4.79,0,0,1,6.11,0L46.68,35.63a3.13,3.13,0,0,1,0,5.09L20.51,62.54a4.83,4.83,0,0,1-6.11,0A3.26,3.26,0,0,1,13.09,60a3.23,3.23,0,0,1,1.31-2.54Z" transform="translate(-13.09 -10.95)"/><path class="cls-1" d="M54.56,64.28a4.05,4.05,0,0,1-2.67-.94,2.76,2.76,0,0,1-1.14-2.19A2.79,2.79,0,0,1,51.89,59,4.1,4.1,0,0,1,54.56,58H85a4.1,4.1,0,0,1,2.67.94,2.79,2.79,0,0,1,1.14,2.19,2.76,2.76,0,0,1-1.14,2.19,4.05,4.05,0,0,1-2.67.94Z" transform="translate(-13.09 -10.95)"/></svg>